# xmcd
# 
# Track frame offsets:
#     150
#     22337
#     39980
#     53649
#     71201
#     87595
#     101849
#     131324
#     149722
#     162739
#     176253
#     190780
#     204435
#     217139
#     229158
#     241855
#     252245
#     263763
#     278960
#     293274
#     302747
#     314512
# 
# Disc length: 4352
# 
# Revision: 3
# Processed by: cddbd v1.5.2PL0 Copyright (c) Steve Scherf et al.
# Submitted via: fre:ac v1.0.31
# 
DISCID=4f10fe16
DTITLE=Ike and Tina Turner - Every Hit Single 1960-74
DYEAR=2000
DGENRE=Soul
TTITLE0=Proud Mary
TTITLE1=I've Been Lovin' You Too Long
TTITLE2=Nutbush City Limits
TTITLE3=A Love Like Yours
TTITLE4=Come Together
TTITLE5=Honky Tonk Woman
TTITLE6=The Hunter
TTITLE7=River Deep Mountain High
TTITLE8=I Want to Take You Higher
TTITLE9=Sexy Ida
TTITLE10=Sweet Rhode Island Red
TTITLE11=It's Gonna Work Out Fine
TTITLE12=A Fool In Love
TTITLE13=So Fine
TTITLE14=I'm Yours
TTITLE15=Shake Your Tail Feather
TTITLE16=Bold Soul Sister
TTITLE17=Crazy About You Baby
TTITLE18=I Wish It Would Rain
TTITLE19=I'm Blue
TTITLE20=I Wanna Jump
TTITLE21=We Need An Understanding
EXTD=
EXTT0=
EXTT1=
EXTT2=
EXTT3=
EXTT4=
EXTT5=
EXTT6=
EXTT7=
EXTT8=
EXTT9=
EXTT10=
EXTT11=
EXTT12=
EXTT13=
EXTT14=
EXTT15=
EXTT16=
EXTT17=
EXTT18=
EXTT19=
EXTT20=
EXTT21=
PLAYORDER=
